PathFileType	4	(X/Y/Z)	C:\Users\WrightLab\Desktop\Jo\P4V128.trc
DataRate	CameraRate	NumFrames	NumMarkers	Units	OrigDataRate	OrigDataStartFrame	OrigNumFrames
100.00	100.00	       18	19	mm	100.00	1	       489
Frame#	Time	Headset_Front			Headset_Back			Headset_Left			Headset_Right			Left_Shoulder			Right_Shoulder			Sternum			C7			Left Elbow			Right Elbow			Left Wrist			Right Wrist			Left ASIS			Right ASIS			S2			Left Knee			Right Knee			Left Ankle			Right Ankle			
		X1	Y1	Z1	X2	Y2	Z2	X3	Y3	Z3	X4	Y4	Z4	X5	Y5	Z5	X6	Y6	Z6	X7	Y7	Z7	X8	Y8	Z8	X9	Y9	Z9	X10	Y10	Z10	X11	Y11	Z11	X12	Y12	Z12	X13	Y13	Z13	X14	Y14	Z14	X15	Y15	Z15	X16	Y16	Z16	X17	Y17	Z17	X18	Y18	Z18	X19	Y19	Z19	

1	0.000																															-20.42178	864.43146	-1304.15210	-464.98828	842.43036	-1544.44653										23.47209	498.62119	-1577.24878	-394.21716	548.00439	-1445.90698							
2	0.010																															-26.80192	864.90070	-1295.41052	-469.11746	838.65857	-1546.12781										19.68586	498.22372	-1573.52161	-397.19830	547.08502	-1442.54260							
3	0.020																															-32.66379	864.30835	-1285.98230	-471.67859	836.60754	-1544.12927										16.26668	498.08585	-1566.88538	-402.42606	548.31940	-1433.20032							
4	0.030																															-39.21751	864.52209	-1275.70264	-475.19495	836.11743	-1538.24731										14.78492	497.38712	-1564.78369	-407.13120	546.16418	-1434.38843							
5	0.040																															-45.79598	864.41217	-1267.63574	-477.25348	830.97748	-1547.75940										10.62049	497.47903	-1555.19409	-411.73633	545.56873	-1425.01733							
6	0.050																									87.97577	1120.39392	-1380.16772				-51.07450	863.84576	-1257.66553	-480.41916	830.05908	-1545.55347										8.27939	494.42856	-1556.53235	-417.16739	544.80054	-1422.08984							
7	0.060																									82.28743	1119.19031	-1372.21924				-56.86863	863.47223	-1248.82813	-483.24506	829.04340	-1540.47668										4.35675	492.77441	-1554.40796	-421.48807	542.95288	-1420.53992							
8	0.070																									74.46212	1117.36646	-1365.99219				-64.30954	863.39740	-1240.32520	-486.98499	825.65228	-1539.98914										0.90074	493.95474	-1548.09985	-427.51691	544.12683	-1408.04321							
9	0.080																									71.68243	1117.42285	-1354.06250				-70.62394	863.68628	-1230.06909	-490.76340	823.21503	-1539.95081										-2.81084	495.05582	-1539.38354	-433.14865	543.55231	-1401.93127							
10	0.090																									65.81728	1116.61743	-1345.31628				-77.18277	863.38373	-1222.01404	-493.64511	822.04443	-1535.18506										-5.95280	492.93054	-1532.80945	-438.99213	542.31934	-1395.88513							
11	0.100																									59.97293	1116.02515	-1337.34619				-84.00556	862.68665	-1212.01099	-497.06976	819.06580	-1533.02588										-9.07545	492.21957	-1529.35876	-445.18927	541.80237	-1390.34399							
12	0.110																									54.42850	1114.67334	-1327.07214				-89.89810	862.16705	-1202.69177	-501.19754	816.19214	-1534.82263										-13.63200	491.26001	-1525.60535	-450.42319	540.46179	-1384.22437							
13	0.120																									48.42070	1114.37720	-1319.15271				-96.03572	860.92261	-1194.56714	-504.18796	814.87170	-1530.65564										-16.15107	487.81174	-1526.38745	-456.96170	540.11365	-1377.56726							
14	0.130																									42.22732	1113.16040	-1309.27319				-102.99067	860.89246	-1184.47021	-507.53836	811.83221	-1528.07239										-19.92911	488.25241	-1518.44116	-462.59180	538.85980	-1371.18591							
15	0.140																									36.37193	1111.70581	-1299.25537				-110.19481	861.86591	-1175.26599	-511.70227	809.67413	-1531.13037										-24.35805	489.88287	-1508.27771	-468.72269	538.88416	-1363.85938							
16	0.150																									29.81710	1112.16040	-1292.87585				-116.83929	860.37653	-1166.39453	-516.11621	809.99268	-1521.08276										-27.66440	489.10324	-1506.56592	-474.71011	536.55920	-1357.27954							
17	0.160																									23.28969	1110.81836	-1282.98706				-122.68588	860.75647	-1157.29810	-519.25861	806.75183	-1521.11377										-31.93383	488.41388	-1502.90369	-479.95154	535.34613	-1349.94995							
18	0.170																									17.40664	1110.61450	-1274.51392				-129.39845	859.39404	-1148.17603	-524.24481	804.94360	-1520.66992	-88.74704	950.94061	-1336.79126	-404.32285	978.66235	-1433.78625				-36.59264	488.70279	-1494.74304	-486.39481	534.38702	-1343.75586							
